<?xml version="1.0" encoding="utf-8"?>
<!-- Generator: Adobe Illustrator 26.0.0, SVG Export Plug-In . SVG Version: 6.00 Build 0)  -->
<svg version="1.1" xmlns="http://www.w3.org/2000/svg" xmlns:xlink="http://www.w3.org/1999/xlink" x="0px" y="0px"
	 viewBox="0 0 100 125" style="enable-background:new 0 0 100 125;" xml:space="preserve">
<g id="Layer_2">
</g>
<g id="Layer_1">
	<g>
		<path d="M93.1,30c-1.7,1.9-3.3,3.8-4.8,5.7c-0.7,0.8-1.3,1.6-2,2.5c1.2,3.7,1.9,7.7,1.9,11.8C88.1,71,71,88.1,50,88.1
			S11.9,71,11.9,50S29,11.9,50,11.9c6.7,0,13.1,1.8,18.6,4.8c1.9-1.9,3.8-3.7,5.8-5.5l1.3-1.1C68.3,5.3,59.5,2.5,50,2.5
			C23.8,2.5,2.5,23.8,2.5,50S23.8,97.5,50,97.5S97.5,76.2,97.5,50C97.5,42.9,95.9,36.1,93.1,30z"/>
		<path d="M63.4,35.9c-3.6,4.4-7,8.9-10.2,13.5c-1.6,2.3-3.2,4.7-4.7,7.1L35.7,40.7c-1.5-1.8-4.1-2.2-6.1-0.9
			c-2.1,1.4-2.6,4.2-1.2,6.3L44.5,70c0.4,0.6,1,1.2,1.7,1.6c0.9,0.6,1.9,0.9,2.9,0.9c1.9,0,4-1,4.9-2.7c0.9-1.6,5.4-9.9,8.4-14.4
			c2.9-4.5,5.9-8.9,9.2-13.2c3.2-4.3,6.6-8.5,10.2-12.5c3.5-4,7.3-8.1,11.1-11.6L93,18c1.8-1.7,1.9-4.5,0.3-6.3
			c-1.7-1.9-4.5-2.1-6.4-0.4c-4.4,3.9-8.3,7.8-12.2,11.9C70.7,27.3,66.9,31.5,63.4,35.9z"/>
	</g>
</g>
</svg>
